<svg width="95" height="39" viewBox="0 0 95 39" fill="none" xmlns="http://www.w3.org/2000/svg">
<path d="M11 11.7156L1 21.7156L11 31.7156" stroke="black" stroke-width="2" stroke-linecap="round" stroke-linejoin="round"/>
<path d="M31 11.7156L41 21.7156L31 31.7156" stroke="black" stroke-width="2" stroke-linecap="round" stroke-linejoin="round"/>
<path d="M24.5349 4.32966L15.9481 36.3761C15.8314 36.8115 15.3838 37.07 14.9483 36.9533C14.5129 36.8366 14.2544 36.389 14.3711 35.9535L22.9579 3.9071C23.0746 3.47162 23.5222 3.21319 23.9577 3.32987C24.3932 3.44656 24.6516 3.89418 24.5349 4.32966Z" fill="black"/>
<path d="M22.9579 3.9071C23.0746 3.47162 23.5222 3.21319 23.9577 3.32987C24.3932 3.44656 24.6516 3.89418 24.5349 4.32966L23.4891 8.23279L21.9121 7.81023L22.9579 3.9071Z" fill="#D9D9D9"/>
<path d="M25.6948 6.30951L28.8488 7.15463" stroke="black" stroke-linecap="round"/>
<path d="M17.8096 4.19672L20.9637 5.04184" stroke="black" stroke-linecap="round"/>
<path d="M19.6457 0.49826L21.2833 3.30751" stroke="black" stroke-linecap="round"/>
<path d="M17.5865 8.18353L20.4093 6.56946" stroke="black" stroke-linecap="round"/>
<path d="M25.2756 7.87344L26.9133 10.6827" stroke="black" stroke-linecap="round"/>
<path d="M26.1497 4.61148L28.9725 2.99741" stroke="black" stroke-linecap="round"/>
<path d="M55.016 14.359C54.184 14.359 53.432 14.175 52.76 13.807C52.096 13.439 51.572 12.931 51.188 12.283C50.812 11.627 50.624 10.895 50.624 10.087C50.624 9.27902 50.812 8.55102 51.188 7.90302C51.572 7.24702 52.1 6.73502 52.772 6.36702C53.444 5.99902 54.196 5.81502 55.028 5.81502C55.652 5.81502 56.228 5.91902 56.756 6.12702C57.284 6.33502 57.732 6.63902 58.1 7.03902L57.536 7.60302C56.88 6.93902 56.052 6.60702 55.052 6.60702C54.388 6.60702 53.784 6.75902 53.24 7.06302C52.696 7.36702 52.268 7.78302 51.956 8.31102C51.652 8.83902 51.5 9.43102 51.5 10.087C51.5 10.743 51.652 11.335 51.956 11.863C52.268 12.391 52.696 12.807 53.24 13.111C53.784 13.415 54.388 13.567 55.052 13.567C56.06 13.567 56.888 13.231 57.536 12.559L58.1 13.123C57.732 13.523 57.28 13.831 56.744 14.047C56.216 14.255 55.64 14.359 55.016 14.359ZM62.1118 14.347C61.5038 14.347 60.9558 14.211 60.4678 13.939C59.9798 13.659 59.5958 13.275 59.3158 12.787C59.0358 12.299 58.8958 11.747 58.8958 11.131C58.8958 10.515 59.0358 9.96302 59.3158 9.47502C59.5958 8.98702 59.9798 8.60702 60.4678 8.33502C60.9558 8.06302 61.5038 7.92702 62.1118 7.92702C62.7198 7.92702 63.2678 8.06302 63.7558 8.33502C64.2438 8.60702 64.6238 8.98702 64.8958 9.47502C65.1758 9.96302 65.3158 10.515 65.3158 11.131C65.3158 11.747 65.1758 12.299 64.8958 12.787C64.6238 13.275 64.2438 13.659 63.7558 13.939C63.2678 14.211 62.7198 14.347 62.1118 14.347ZM62.1118 13.591C62.5598 13.591 62.9598 13.491 63.3118 13.291C63.6718 13.083 63.9518 12.791 64.1518 12.415C64.3518 12.039 64.4518 11.611 64.4518 11.131C64.4518 10.651 64.3518 10.223 64.1518 9.84702C63.9518 9.47102 63.6718 9.18302 63.3118 8.98302C62.9598 8.77502 62.5598 8.67102 62.1118 8.67102C61.6638 8.67102 61.2598 8.77502 60.8998 8.98302C60.5478 9.18302 60.2678 9.47102 60.0598 9.84702C59.8598 10.223 59.7598 10.651 59.7598 11.131C59.7598 11.611 59.8598 12.039 60.0598 12.415C60.2678 12.791 60.5478 13.083 60.8998 13.291C61.2598 13.491 61.6638 13.591 62.1118 13.591ZM72.8152 5.38302V14.287H71.9992V13.039C71.7432 13.463 71.4032 13.787 70.9792 14.011C70.5632 14.235 70.0912 14.347 69.5632 14.347C68.9712 14.347 68.4352 14.211 67.9552 13.939C67.4752 13.667 67.0992 13.287 66.8272 12.799C66.5552 12.311 66.4192 11.755 66.4192 11.131C66.4192 10.507 66.5552 9.95102 66.8272 9.46302C67.0992 8.97502 67.4752 8.59902 67.9552 8.33502C68.4352 8.06302 68.9712 7.92702 69.5632 7.92702C70.0752 7.92702 70.5352 8.03502 70.9432 8.25102C71.3592 8.45902 71.6992 8.76702 71.9632 9.17502V5.38302H72.8152ZM69.6352 13.591C70.0752 13.591 70.4712 13.491 70.8232 13.291C71.1832 13.083 71.4632 12.791 71.6632 12.415C71.8712 12.039 71.9752 11.611 71.9752 11.131C71.9752 10.651 71.8712 10.223 71.6632 9.84702C71.4632 9.47102 71.1832 9.18302 70.8232 8.98302C70.4712 8.77502 70.0752 8.67102 69.6352 8.67102C69.1872 8.67102 68.7832 8.77502 68.4232 8.98302C68.0712 9.18302 67.7912 9.47102 67.5832 9.84702C67.3832 10.223 67.2832 10.651 67.2832 11.131C67.2832 11.611 67.3832 12.039 67.5832 12.415C67.7912 12.791 68.0712 13.083 68.4232 13.291C68.7832 13.491 69.1872 13.591 69.6352 13.591ZM75.188 7.97502H76.04V14.287H75.188V7.97502ZM75.62 6.59502C75.444 6.59502 75.296 6.53502 75.176 6.41502C75.056 6.29502 74.996 6.15102 74.996 5.98302C74.996 5.82302 75.056 5.68302 75.176 5.56302C75.296 5.44302 75.444 5.38302 75.62 5.38302C75.796 5.38302 75.944 5.44302 76.064 5.56302C76.184 5.67502 76.244 5.81102 76.244 5.97102C76.244 6.14702 76.184 6.29502 76.064 6.41502C75.944 6.53502 75.796 6.59502 75.62 6.59502ZM81.6267 7.92702C82.4187 7.92702 83.0467 8.15902 83.5107 8.62302C83.9827 9.07902 84.2187 9.74702 84.2187 10.627V14.287H83.3667V10.711C83.3667 10.055 83.2027 9.55502 82.8747 9.21102C82.5467 8.86702 82.0787 8.69502 81.4707 8.69502C80.7907 8.69502 80.2507 8.89902 79.8507 9.30702C79.4587 9.70702 79.2627 10.263 79.2627 10.975V14.287H78.4107V7.97502H79.2267V9.13902C79.4587 8.75502 79.7787 8.45902 80.1867 8.25102C80.6027 8.03502 81.0827 7.92702 81.6267 7.92702ZM92.3992 7.97502V13.519C92.3992 14.591 92.1352 15.383 91.6072 15.895C91.0872 16.415 90.2992 16.675 89.2432 16.675C88.6592 16.675 88.1032 16.587 87.5752 16.411C87.0552 16.243 86.6312 16.007 86.3032 15.703L86.7352 15.055C87.0392 15.327 87.4072 15.539 87.8392 15.691C88.2792 15.843 88.7392 15.919 89.2192 15.919C90.0192 15.919 90.6072 15.731 90.9832 15.355C91.3592 14.987 91.5472 14.411 91.5472 13.627V12.823C91.2832 13.223 90.9352 13.527 90.5032 13.735C90.0792 13.943 89.6072 14.047 89.0872 14.047C88.4952 14.047 87.9552 13.919 87.4672 13.663C86.9872 13.399 86.6072 13.035 86.3272 12.571C86.0552 12.099 85.9192 11.567 85.9192 10.975C85.9192 10.383 86.0552 9.85502 86.3272 9.39102C86.6072 8.92702 86.9872 8.56702 87.4672 8.31102C87.9472 8.05502 88.4872 7.92702 89.0872 7.92702C89.6232 7.92702 90.1072 8.03502 90.5392 8.25102C90.9712 8.46702 91.3192 8.77902 91.5832 9.18702V7.97502H92.3992ZM89.1712 13.291C89.6272 13.291 90.0392 13.195 90.4072 13.003C90.7752 12.803 91.0592 12.527 91.2592 12.175C91.4672 11.823 91.5712 11.423 91.5712 10.975C91.5712 10.527 91.4672 10.131 91.2592 9.78702C91.0592 9.43502 90.7752 9.16302 90.4072 8.97102C90.0472 8.77102 89.6352 8.67102 89.1712 8.67102C88.7152 8.67102 88.3032 8.76702 87.9352 8.95902C87.5752 9.15102 87.2912 9.42302 87.0832 9.77502C86.8832 10.127 86.7832 10.527 86.7832 10.975C86.7832 11.423 86.8832 11.823 87.0832 12.175C87.2912 12.527 87.5752 12.803 87.9352 13.003C88.3032 13.195 88.7152 13.291 89.1712 13.291Z" fill="black"/>
<path d="M77.957 22.7401C77.7891 22.9862 77.6016 23.2812 77.3945 23.6249C77.1875 23.9687 76.9668 24.3534 76.7324 24.7792C76.5332 25.1347 76.3359 25.5136 76.1406 25.9159C75.9492 26.3144 75.7656 26.7108 75.5898 27.1054C75.4141 27.496 75.252 27.873 75.1035 28.2362C74.9551 28.5956 74.8262 28.914 74.7168 29.1913C74.6074 29.4648 74.5215 29.6855 74.459 29.8534C74.3965 30.0175 74.3652 30.1015 74.3652 30.1054C74.3262 30.203 74.2559 30.2519 74.1543 30.2519C74.1035 30.2519 74.0586 30.2362 74.0195 30.205C73.9805 30.1698 73.9551 30.1269 73.9434 30.0761C73.9434 30.0722 73.9238 29.9901 73.8848 29.83C73.8496 29.6659 73.8008 29.4491 73.7383 29.1796C73.6758 28.9062 73.6035 28.5937 73.5215 28.2421C73.4434 27.8866 73.3594 27.5175 73.2695 27.1347C73.1836 26.748 73.0957 26.3573 73.0059 25.9628C72.916 25.5683 72.832 25.1933 72.7539 24.8378C72.4922 25.5761 72.2285 26.2304 71.9629 26.8007C71.7012 27.3671 71.4316 27.8612 71.1543 28.2831C70.877 28.7011 70.5898 29.0526 70.293 29.3378C70 29.623 69.6914 29.8534 69.3672 30.0292C69.0469 30.2011 68.709 30.3241 68.3535 30.3983C68.002 30.4726 67.6289 30.5097 67.2344 30.5097C67.0312 30.5097 66.8145 30.4862 66.584 30.4394C66.3535 30.3964 66.125 30.328 65.8984 30.2343C65.6719 30.1405 65.4551 30.0233 65.248 29.8827C65.041 29.7421 64.8574 29.5761 64.6973 29.3847C64.5371 29.1894 64.4102 28.9706 64.3164 28.7284C64.2227 28.4823 64.1758 28.2089 64.1758 27.9081C64.1758 27.5917 64.2422 27.3026 64.375 27.0409C64.5078 26.7753 64.6875 26.5487 64.9141 26.3612C65.1406 26.1698 65.4023 26.0214 65.6992 25.9159C66 25.8105 66.3164 25.7577 66.6484 25.7577C66.8906 25.7577 67.1074 25.7792 67.2988 25.8222C67.4941 25.8612 67.666 25.912 67.8145 25.9745C67.9629 26.037 68.0898 26.1054 68.1953 26.1796C68.3008 26.2538 68.3887 26.3222 68.459 26.3847C68.5293 26.4472 68.5801 26.5019 68.6113 26.5487C68.6426 26.5917 68.6602 26.6132 68.6641 26.6132C68.6875 26.6562 68.6992 26.6972 68.6992 26.7362C68.6992 26.7909 68.6777 26.8417 68.6348 26.8886C68.5957 26.9355 68.543 26.9589 68.4766 26.9589C68.3984 26.9589 68.3359 26.9257 68.2891 26.8593C68.2852 26.8554 68.2539 26.8202 68.1953 26.7538C68.1367 26.6835 68.041 26.6073 67.9082 26.5253C67.7754 26.4433 67.6035 26.369 67.3926 26.3026C67.1855 26.2362 66.9316 26.203 66.6309 26.203C66.3574 26.203 66.0977 26.246 65.8516 26.3319C65.6094 26.414 65.3965 26.5312 65.2129 26.6835C65.0332 26.8358 64.8887 27.0175 64.7793 27.2284C64.6738 27.4355 64.6211 27.664 64.6211 27.914C64.6211 28.1601 64.6621 28.3847 64.7441 28.5878C64.8262 28.7909 64.9355 28.9726 65.0723 29.1327C65.209 29.2929 65.3672 29.4315 65.5469 29.5487C65.7266 29.6659 65.9141 29.7636 66.1094 29.8417C66.3047 29.9159 66.5 29.9726 66.6953 30.0116C66.8945 30.0468 67.082 30.0644 67.2578 30.0644C67.5547 30.0644 67.8438 30.0429 68.125 29.9999C68.4102 29.953 68.6895 29.8671 68.9629 29.7421C69.2402 29.6171 69.5117 29.4452 69.7773 29.2265C70.043 29.0077 70.3066 28.7226 70.5684 28.371C70.8301 28.0194 71.0879 27.5956 71.3418 27.0995C71.5996 26.6034 71.8574 26.0175 72.1152 25.3417C72.1934 25.1386 72.2695 24.9198 72.3438 24.6855C72.418 24.4511 72.4941 24.2148 72.5723 23.9765C72.5059 23.6327 72.457 23.3398 72.4258 23.0976C72.3984 22.8554 72.3848 22.6542 72.3848 22.494C72.3848 22.3222 72.3984 22.1855 72.4258 22.0839C72.4531 21.9823 72.4883 21.9062 72.5312 21.8554C72.5742 21.8007 72.6211 21.7675 72.6719 21.7558C72.7227 21.7401 72.7715 21.7323 72.8184 21.7323C72.8574 21.7323 72.9004 21.7401 72.9473 21.7558C72.998 21.7714 73.043 21.8065 73.082 21.8612C73.125 21.912 73.1602 21.9882 73.1875 22.0898C73.2148 22.1913 73.2285 22.328 73.2285 22.4999C73.2285 22.6874 73.2109 22.9042 73.1758 23.1503C73.1406 23.3964 73.0879 23.6679 73.0176 23.9648C73.0684 24.203 73.127 24.4687 73.1934 24.7616C73.2598 25.0546 73.3281 25.3593 73.3984 25.6757C73.4688 25.9882 73.541 26.3085 73.6152 26.6366C73.6895 26.9648 73.7617 27.2851 73.832 27.5976C73.9023 27.9101 73.9688 28.2089 74.0312 28.494C74.0977 28.7792 74.1582 29.037 74.2129 29.2675C74.3184 29.0019 74.4473 28.6815 74.5996 28.3065C74.752 27.9276 74.9219 27.5273 75.1094 27.1054C75.2969 26.6796 75.4941 26.248 75.7012 25.8105C75.9121 25.369 76.127 24.953 76.3457 24.5624C76.6543 24.0077 76.9375 23.5331 77.1953 23.1386C77.4531 22.7401 77.6758 22.412 77.8633 22.1542C78.0508 21.8964 78.1973 21.7069 78.3027 21.5858C78.4121 21.4608 78.4707 21.3925 78.4785 21.3808C78.5215 21.3378 78.5742 21.3163 78.6367 21.3163C78.7031 21.3163 78.7559 21.3398 78.7949 21.3866C78.8379 21.4296 78.8594 21.4804 78.8594 21.539C78.8594 21.5663 78.8535 21.5937 78.8418 21.621C78.8418 21.6249 78.8184 21.6835 78.7715 21.7968C78.7285 21.9062 78.6719 22.0585 78.6016 22.2538C78.5352 22.4452 78.4609 22.6718 78.3789 22.9335C78.2969 23.1913 78.2168 23.4706 78.1387 23.7714C78.0605 24.0683 77.9902 24.3808 77.9277 24.7089C77.8691 25.0331 77.8262 25.3573 77.7988 25.6815C77.7871 25.83 77.7773 25.9862 77.7695 26.1503C77.7617 26.3105 77.7578 26.4726 77.7578 26.6366C77.7578 26.8944 77.7695 27.1542 77.793 27.4159C77.8164 27.6776 77.8555 27.9296 77.9102 28.1718C77.9648 28.414 78.0391 28.6425 78.1328 28.8573C78.2266 29.0683 78.3418 29.2538 78.4785 29.414C78.6152 29.5741 78.7773 29.703 78.9648 29.8007C79.1562 29.8983 79.377 29.9511 79.627 29.9589C79.6895 29.9628 79.7383 29.9901 79.7734 30.0409C79.8125 30.0878 79.832 30.1386 79.832 30.1933C79.832 30.248 79.8105 30.2968 79.7676 30.3398C79.7246 30.3827 79.6738 30.4042 79.6152 30.4042C79.5527 30.4042 79.4902 30.3983 79.4277 30.3866C79.1465 30.3476 78.8984 30.2675 78.6836 30.1464C78.4688 30.0214 78.2832 29.869 78.127 29.6894C77.9707 29.5058 77.8398 29.2987 77.7344 29.0683C77.6328 28.8339 77.5508 28.5839 77.4883 28.3183C77.4258 28.0526 77.3809 27.7773 77.3535 27.4921C77.3301 27.203 77.3184 26.912 77.3184 26.619C77.3184 26.2714 77.3359 25.9237 77.3711 25.5761C77.4062 25.2284 77.4531 24.8905 77.5117 24.5624C77.5703 24.2304 77.6387 23.9101 77.7168 23.6015C77.7949 23.2929 77.875 23.0058 77.957 22.7401ZM84.7012 28.6523C84.6855 28.6835 84.6523 28.7499 84.6016 28.8515C84.5547 28.9491 84.4922 29.0624 84.4141 29.1913C84.3398 29.3202 84.252 29.455 84.1504 29.5956C84.0488 29.7362 83.9355 29.8651 83.8105 29.9823C83.6855 30.0995 83.5508 30.1972 83.4062 30.2753C83.2617 30.3495 83.1094 30.3866 82.9492 30.3866C82.7227 30.3866 82.5312 30.3144 82.375 30.1698C82.2227 30.0253 82.1113 29.8437 82.041 29.6249C81.9082 29.8476 81.75 30.0253 81.5664 30.1581C81.3828 30.287 81.1992 30.3515 81.0156 30.3515C80.8711 30.3515 80.7402 30.3261 80.623 30.2753C80.5059 30.2206 80.4062 30.1464 80.3242 30.0526C80.2422 29.955 80.1777 29.8417 80.1309 29.7128C80.0879 29.5839 80.0664 29.4433 80.0664 29.2909C80.0664 28.9862 80.1172 28.7187 80.2188 28.4882C80.3242 28.2538 80.457 28.0585 80.6172 27.9023C80.7773 27.746 80.9531 27.6288 81.1445 27.5507C81.3398 27.4726 81.5273 27.4335 81.707 27.4335C81.8281 27.4335 81.9395 27.4511 82.041 27.4862C82.1426 27.5175 82.2285 27.5526 82.2988 27.5917C82.373 27.6308 82.4297 27.6679 82.4688 27.703C82.5078 27.7343 82.5293 27.7519 82.5332 27.7558C82.5762 27.8065 82.5977 27.8593 82.5977 27.914C82.5977 27.9726 82.5762 28.0253 82.5332 28.0722C82.4902 28.1151 82.4395 28.1366 82.3809 28.1366C82.3184 28.1366 82.2656 28.1151 82.2227 28.0722C82.2148 28.0644 82.1973 28.0507 82.1699 28.0312C82.1426 28.0077 82.1055 27.9843 82.0586 27.9608C82.0117 27.9374 81.9551 27.9179 81.8887 27.9023C81.8262 27.8827 81.7539 27.873 81.6719 27.873C81.5508 27.873 81.4219 27.9003 81.2852 27.955C81.1484 28.0097 81.0234 28.0956 80.9102 28.2128C80.7969 28.3261 80.7012 28.4706 80.623 28.6464C80.5488 28.8183 80.5117 29.0233 80.5117 29.2616C80.5117 29.3358 80.5195 29.412 80.5352 29.4901C80.5508 29.5644 80.5781 29.6327 80.6172 29.6952C80.6562 29.7577 80.709 29.8085 80.7754 29.8476C80.8418 29.8866 80.9238 29.9062 81.0215 29.9062C81.0918 29.9062 81.1719 29.8827 81.2617 29.8358C81.3555 29.789 81.4434 29.7167 81.5254 29.619C81.6113 29.5214 81.6875 29.3983 81.7539 29.2499C81.8242 29.1015 81.873 28.9257 81.9004 28.7226C81.9082 28.6679 81.9336 28.623 81.9766 28.5878C82.0195 28.5487 82.0703 28.5292 82.1289 28.5292C82.1836 28.5292 82.2305 28.5507 82.2695 28.5937C82.3125 28.6366 82.3359 28.6855 82.3398 28.7401C82.3438 28.8144 82.3516 28.9198 82.3633 29.0565C82.375 29.1894 82.4004 29.3222 82.4395 29.455C82.4824 29.5878 82.5449 29.703 82.627 29.8007C82.709 29.8983 82.8223 29.9472 82.9668 29.9472C83.0605 29.9472 83.1523 29.9218 83.2422 29.871C83.3359 29.8202 83.4258 29.7538 83.5117 29.6718C83.6016 29.5858 83.6855 29.4901 83.7637 29.3847C83.8457 29.2753 83.9199 29.1659 83.9863 29.0565C84.0527 28.9472 84.1113 28.8417 84.1621 28.7401C84.2129 28.6386 84.2559 28.5507 84.291 28.4765C84.3105 28.4335 84.3379 28.4003 84.373 28.3769C84.4121 28.3534 84.4531 28.3417 84.4961 28.3417C84.5625 28.3417 84.6152 28.3671 84.6543 28.4179C84.6973 28.4648 84.7188 28.5155 84.7188 28.5702C84.7188 28.5976 84.7129 28.6249 84.7012 28.6523ZM86.418 30.8612C87.1523 29.9042 87.6621 29.1093 87.9473 28.4765C87.9668 28.4335 87.9922 28.4023 88.0234 28.3827C88.0586 28.3593 88.0977 28.3476 88.1406 28.3476C88.207 28.3476 88.2617 28.371 88.3047 28.4179C88.3477 28.4608 88.3691 28.5116 88.3691 28.5702C88.3691 28.5976 88.3633 28.6249 88.3516 28.6523C88.1797 29.0429 87.9355 29.4784 87.6191 29.9589C87.3027 30.4394 86.9023 30.9823 86.418 31.5878C86.418 31.8339 86.4199 32.08 86.4238 32.3261C86.4277 32.5722 86.4297 32.8417 86.4297 33.1347C86.4297 33.4276 86.4219 33.7167 86.4062 34.0019C86.3945 34.2909 86.3711 34.5644 86.3359 34.8222C86.3008 35.0839 86.252 35.3241 86.1895 35.5429C86.1309 35.7655 86.0527 35.9569 85.9551 36.1171C85.8613 36.2812 85.7461 36.4081 85.6094 36.498C85.4766 36.5917 85.3184 36.6386 85.1348 36.6386C84.873 36.6386 84.6719 36.539 84.5312 36.3398C84.3906 36.1405 84.3203 35.8573 84.3203 35.4901C84.3203 35.2948 84.3379 35.0819 84.373 34.8515C84.4121 34.6249 84.4668 34.3905 84.5371 34.1483C84.6074 33.9062 84.6914 33.6601 84.7891 33.4101C84.8906 33.164 85.002 32.9237 85.123 32.6894C85.2441 32.455 85.375 32.2304 85.5156 32.0155C85.6602 31.8007 85.8125 31.6054 85.9727 31.4296C85.9766 31.1562 85.9785 30.8847 85.9785 30.6151C85.9824 30.3456 85.9883 30.0976 85.9961 29.871C85.8789 30.0194 85.7383 30.1366 85.5742 30.2226C85.4141 30.3085 85.2539 30.3515 85.0938 30.3515C84.957 30.3515 84.832 30.3261 84.7188 30.2753C84.6094 30.2206 84.5156 30.1464 84.4375 30.0526C84.3594 29.955 84.2988 29.8417 84.2559 29.7128C84.2129 29.5839 84.1914 29.4433 84.1914 29.2909C84.1914 28.9862 84.2422 28.7187 84.3438 28.4882C84.4492 28.2538 84.582 28.0585 84.7422 27.9023C84.9023 27.746 85.0781 27.6288 85.2695 27.5507C85.4648 27.4726 85.6523 27.4335 85.832 27.4335C85.9531 27.4335 86.0645 27.4491 86.166 27.4804C86.2676 27.5116 86.3535 27.5468 86.4238 27.5858C86.498 27.6249 86.5547 27.662 86.5938 27.6972C86.6328 27.7323 86.6543 27.7519 86.6582 27.7558C86.7012 27.8026 86.7227 27.8554 86.7227 27.914C86.7227 27.9726 86.7012 28.0253 86.6582 28.0722C86.6152 28.1151 86.5645 28.1366 86.5059 28.1366C86.4512 28.1366 86.3984 28.1151 86.3477 28.0722C86.332 28.0605 86.3105 28.0448 86.2832 28.0253C86.2598 28.0019 86.2266 27.9784 86.1836 27.955C86.1445 27.9315 86.0957 27.912 86.0371 27.8964C85.9824 27.8808 85.916 27.873 85.8379 27.873C85.7207 27.873 85.5918 27.9003 85.4512 27.955C85.3105 28.0058 85.1797 28.0878 85.0586 28.2011C84.9375 28.3144 84.8359 28.4608 84.7539 28.6405C84.6719 28.8163 84.6309 29.0292 84.6309 29.2792C84.6309 29.4667 84.6719 29.619 84.7539 29.7362C84.8359 29.8495 84.9629 29.9062 85.1348 29.9062C85.2168 29.9062 85.3027 29.8827 85.3926 29.8358C85.4863 29.789 85.5762 29.7167 85.6621 29.619C85.748 29.5214 85.8223 29.3983 85.8848 29.2499C85.9512 29.1015 85.998 28.9257 86.0254 28.7226C86.0332 28.6679 86.0586 28.623 86.1016 28.5878C86.1445 28.5487 86.1953 28.5292 86.2539 28.5292C86.3203 28.5292 86.3711 28.5526 86.4062 28.5995C86.4453 28.6464 86.4648 28.6991 86.4648 28.7577C86.4648 28.7616 86.4629 28.8222 86.459 28.9394C86.4551 29.0526 86.4512 29.205 86.4473 29.3964C86.4434 29.5878 86.4375 29.8105 86.4297 30.0644C86.4258 30.3144 86.4219 30.58 86.418 30.8612ZM85.9727 32.1444C85.7891 32.3983 85.623 32.6737 85.4746 32.9706C85.3262 33.2714 85.1992 33.5741 85.0938 33.8788C84.9883 34.1835 84.9062 34.4784 84.8477 34.7636C84.793 35.0526 84.7656 35.3105 84.7656 35.537C84.7656 35.6815 84.7773 35.7968 84.8008 35.8827C84.8281 35.9687 84.8594 36.0351 84.8945 36.0819C84.9336 36.1288 84.9746 36.1601 85.0176 36.1757C85.0645 36.1913 85.1074 36.1991 85.1465 36.1991C85.2676 36.1991 85.373 36.1503 85.4629 36.0526C85.5527 35.955 85.6289 35.8241 85.6914 35.6601C85.7539 35.4999 85.8047 35.3144 85.8438 35.1034C85.8828 34.8925 85.9121 34.6737 85.9316 34.4472C85.9512 34.2245 85.9648 34.0019 85.9727 33.7792C85.9805 33.5565 85.9844 33.3515 85.9844 33.164C85.9844 32.996 85.9844 32.828 85.9844 32.6601C85.9844 32.4921 85.9805 32.3202 85.9727 32.1444ZM88.9082 25.6874C88.9082 25.8358 88.8555 25.9628 88.75 26.0683C88.6484 26.1698 88.5234 26.2206 88.375 26.2206C88.2266 26.2206 88.0996 26.1698 87.9941 26.0683C87.8926 25.9628 87.8418 25.8358 87.8418 25.6874C87.8418 25.6132 87.8555 25.5448 87.8828 25.4823C87.9102 25.4159 87.9473 25.3593 87.9941 25.3124C88.0449 25.2616 88.1016 25.2226 88.1641 25.1952C88.2305 25.1679 88.3008 25.1542 88.375 25.1542C88.4492 25.1542 88.5176 25.1679 88.5801 25.1952C88.6465 25.2226 88.7031 25.2616 88.75 25.3124C88.8008 25.3593 88.8398 25.4159 88.8672 25.4823C88.8945 25.5448 88.9082 25.6132 88.9082 25.6874ZM87.959 29.121C87.959 28.5585 87.9941 27.998 88.0645 27.4394C88.0723 27.3847 88.0957 27.3378 88.1348 27.2987C88.1777 27.2558 88.2324 27.2343 88.2988 27.2343C88.3574 27.2343 88.4062 27.2577 88.4453 27.3046C88.4844 27.3476 88.5039 27.3983 88.5039 27.4569C88.5039 27.4804 88.498 27.5507 88.4863 27.6679C88.4785 27.7851 88.4668 27.9257 88.4512 28.0898C88.4395 28.2499 88.4277 28.4218 88.416 28.6054C88.4082 28.7851 88.4043 28.9511 88.4043 29.1034C88.4043 29.3105 88.4238 29.4784 88.4629 29.6073C88.5059 29.7323 88.5586 29.83 88.6211 29.9003C88.6875 29.9706 88.7559 30.0175 88.8262 30.0409C88.9004 30.0644 88.9707 30.0761 89.0371 30.0761C89.1465 30.0761 89.2598 30.037 89.377 29.9589C89.4941 29.8808 89.6133 29.7714 89.7344 29.6308C89.8594 29.4901 89.9844 29.3222 90.1094 29.1269C90.2344 28.9276 90.3574 28.7069 90.4785 28.4648C90.498 28.4257 90.5254 28.3964 90.5605 28.3769C90.5957 28.3534 90.6348 28.3417 90.6777 28.3417C90.7402 28.3417 90.791 28.3651 90.8301 28.412C90.873 28.4589 90.8945 28.5097 90.8945 28.5644C90.8945 28.6034 90.8867 28.6366 90.8711 28.664C90.8242 28.7538 90.7656 28.8632 90.6953 28.9921C90.625 29.121 90.5449 29.2538 90.4551 29.3905C90.3652 29.5273 90.2656 29.664 90.1562 29.8007C90.0508 29.9335 89.9375 30.0546 89.8164 30.164C89.6953 30.2694 89.5684 30.3554 89.4355 30.4218C89.3027 30.4882 89.168 30.5214 89.0312 30.5214C88.8555 30.5214 88.7012 30.4843 88.5684 30.4101C88.4355 30.3358 88.3223 30.2362 88.2285 30.1112C88.1387 29.9862 88.0703 29.8398 88.0234 29.6718C87.9805 29.4999 87.959 29.3163 87.959 29.121ZM88.5801 25.6874C88.5801 25.6327 88.5586 25.5858 88.5156 25.5468C88.4766 25.5038 88.4297 25.4823 88.375 25.4823C88.3203 25.4823 88.2734 25.5038 88.2344 25.5468C88.1953 25.5858 88.1758 25.6327 88.1758 25.6874C88.1758 25.7421 88.1953 25.789 88.2344 25.828C88.2734 25.8671 88.3203 25.8866 88.375 25.8866C88.4297 25.8866 88.4766 25.8671 88.5156 25.828C88.5586 25.789 88.5801 25.7421 88.5801 25.6874ZM94.3047 28.664C94.2812 28.7069 94.2402 28.7851 94.1816 28.8983C94.127 29.0116 94.0508 29.1405 93.9531 29.2851C93.8594 29.4257 93.7461 29.5722 93.6133 29.7245C93.4805 29.8769 93.3281 30.0175 93.1562 30.1464C92.9844 30.2714 92.791 30.3749 92.5762 30.4569C92.3652 30.539 92.1348 30.58 91.8848 30.58C91.6621 30.58 91.4648 30.539 91.293 30.4569C91.1211 30.3788 90.9746 30.2675 90.8535 30.123C90.7324 29.9745 90.6406 29.8007 90.5781 29.6015C90.5156 29.4023 90.4844 29.1815 90.4844 28.9394C90.4844 28.705 90.5176 28.4862 90.584 28.2831C90.6504 28.0761 90.7402 27.8964 90.8535 27.744C90.9707 27.5917 91.1055 27.4726 91.2578 27.3866C91.4102 27.2968 91.5723 27.2519 91.7441 27.2519C91.873 27.2519 91.9902 27.2753 92.0957 27.3222C92.2012 27.3651 92.2891 27.4237 92.3594 27.498C92.4336 27.5722 92.4902 27.6542 92.5293 27.744C92.5723 27.8339 92.5938 27.9237 92.5938 28.0136C92.5938 28.0995 92.582 28.1796 92.5586 28.2538C92.5391 28.328 92.5117 28.3944 92.4766 28.453C92.4453 28.5077 92.4082 28.5526 92.3652 28.5878C92.3223 28.619 92.2793 28.6347 92.2363 28.6347C92.1699 28.6347 92.1152 28.6132 92.0723 28.5702C92.0332 28.5273 92.0137 28.4745 92.0137 28.412C92.0137 28.3808 92.0195 28.3534 92.0312 28.33C92.0469 28.3065 92.0625 28.2831 92.0781 28.2597C92.0977 28.2323 92.1133 28.2011 92.125 28.1659C92.1406 28.1269 92.1484 28.078 92.1484 28.0194C92.1484 27.9374 92.1094 27.8632 92.0312 27.7968C91.957 27.7304 91.8613 27.6972 91.7441 27.6972C91.6348 27.6972 91.5293 27.7304 91.4277 27.7968C91.3301 27.8632 91.2441 27.953 91.1699 28.0663C91.0957 28.1757 91.0352 28.3065 90.9883 28.4589C90.9453 28.6073 90.9238 28.7655 90.9238 28.9335C90.9238 29.0937 90.9434 29.246 90.9824 29.3905C91.0215 29.5351 91.0801 29.664 91.1582 29.7773C91.2363 29.8866 91.334 29.9745 91.4512 30.0409C91.5723 30.1073 91.7148 30.1405 91.8789 30.1405C92.0898 30.1405 92.2852 30.1034 92.4648 30.0292C92.6445 29.9511 92.8086 29.8534 92.957 29.7362C93.1055 29.619 93.2363 29.4921 93.3496 29.3554C93.4629 29.2148 93.5586 29.0839 93.6367 28.9628C93.7188 28.8378 93.7812 28.7304 93.8242 28.6405C93.8711 28.5468 93.8984 28.4882 93.9062 28.4648C93.9219 28.4257 93.9473 28.3964 93.9824 28.3769C94.0215 28.3534 94.0625 28.3417 94.1055 28.3417C94.1719 28.3417 94.2246 28.3651 94.2637 28.412C94.3066 28.4589 94.3281 28.5116 94.3281 28.5702C94.3281 28.5937 94.3203 28.6249 94.3047 28.664Z" fill="black"/>
</svg>
